<svg width="18" height="17" viewBox="0 0 18 17" fill="none" xmlns="http://www.w3.org/2000/svg">
<path fill-rule="evenodd" clip-rule="evenodd" d="M6.57946 7.85841C6.21487 7.85841 5.9266 8.14175 5.9266 8.50008C5.9266 8.85008 6.21487 9.14175 6.57946 9.14175H11.6667V13.1251C11.6667 15.1667 9.97941 16.8334 7.89365 16.8334H3.76453C1.68726 16.8334 0 15.1751 0 13.1334V3.87508C0 1.82508 1.69574 0.166748 3.77301 0.166748H7.91061C9.97941 0.166748 11.6667 1.82508 11.6667 3.86675V7.85841H6.57946ZM14.6919 5.61692L17.1252 8.04192C17.2502 8.16692 17.3169 8.32525 17.3169 8.50025C17.3169 8.66692 17.2502 8.83359 17.1252 8.95025L14.6919 11.3753C14.5669 11.5003 14.4002 11.5669 14.2419 11.5669C14.0752 11.5669 13.9085 11.5003 13.7835 11.3753C13.5335 11.1253 13.5335 10.7169 13.7835 10.4669L15.1169 9.14192H11.6669V7.85859H15.1169L13.7835 6.53359C13.5335 6.28359 13.5335 5.87525 13.7835 5.62525C14.0335 5.36692 14.4419 5.36692 14.6919 5.61692Z" fill="#99B2C6"/>
</svg>
