<svg width="647" height="602" viewBox="0 0 647 602" fill="none" xmlns="http://www.w3.org/2000/svg">
<path opacity="0.1" d="M323.5 602C502.164 602 647 588.569 647 572C647 555.431 502.164 542 323.5 542C144.836 542 0 555.431 0 572C0 588.569 144.836 602 323.5 602Z" fill="#3A36DB"/>
<path d="M509.787 268.44L502.52 269.553L510.929 324.461L518.197 323.348L509.787 268.44Z" fill="#99B2C6"/>
<path d="M509.782 268.479L502.594 269.623L504.227 264.068L505.044 261.127L506.678 263.578L509.782 268.479Z" fill="#FF8C64"/>
<path d="M517.621 319.439L510.354 320.552L510.972 324.589L518.239 323.476L517.621 319.439Z" fill="#06152B"/>
<path d="M518.276 326.639L511.904 327.619C511.577 327.619 511.414 327.456 511.414 327.129L510.924 324.352L518.276 323.208L518.766 325.986C518.766 326.312 518.602 326.639 518.276 326.639Z" fill="#EF452F"/>
<path d="M506.677 263.578L504.227 264.068L505.043 261.127L506.677 263.578Z" fill="#06152B"/>
<path d="M510.373 320.556L517.641 319.443L517.195 316.536L509.928 317.649L510.373 320.556Z" fill="#F68407"/>
<path d="M504.717 272.073L510.925 312.752C510.925 313.079 511.252 313.242 511.578 313.242C511.905 313.242 512.069 312.916 512.069 312.589L505.86 271.909C505.86 271.583 505.534 271.419 505.207 271.419C504.88 271.419 504.717 271.746 504.717 272.073Z" fill="#99B2C6"/>
<path d="M507.658 271.583L513.866 312.263C513.866 312.59 514.193 312.753 514.52 312.753C514.847 312.753 515.01 312.426 515.01 312.1L508.802 271.42C508.802 271.093 508.475 270.93 508.148 270.93C507.822 270.93 507.658 271.257 507.658 271.583Z" fill="#99B2C6"/>
<path d="M522.928 268.63L515.576 268.654L515.757 324.201L523.109 324.177L522.928 268.63Z" fill="#03A89E"/>
<path d="M523.016 268.641L515.664 268.804L518.115 263.413L519.258 260.799L520.565 263.413L523.016 268.641Z" fill="#FF8C64"/>
<path d="M523.174 320.255L515.822 320.279L515.836 324.364L523.187 324.34L523.174 320.255Z" fill="#06152B"/>
<path d="M522.69 327.456H516.318C515.991 327.456 515.828 327.293 515.828 326.966V324.188H523.18V326.966C523.18 327.293 523.016 327.456 522.69 327.456Z" fill="#EF452F"/>
<path d="M520.566 263.415H518.115L519.259 260.801L520.566 263.415Z" fill="#06152B"/>
<path d="M515.82 320.282L523.172 320.258L523.162 317.317L515.811 317.341L515.82 320.282Z" fill="#3C7341"/>
<path d="M517.459 271.418L517.622 312.588C517.622 312.914 517.949 313.078 518.112 313.078C518.439 313.078 518.603 312.751 518.603 312.588L518.439 271.418C518.439 271.091 518.112 270.928 517.949 270.928C517.786 270.928 517.459 271.091 517.459 271.418Z" fill="#03A89E"/>
<path d="M520.402 271.42L520.566 312.589C520.566 312.916 520.892 313.08 521.056 313.08C521.383 313.08 521.546 312.753 521.546 312.589L521.383 271.42C521.383 271.093 521.056 270.93 520.892 270.93C520.566 270.93 520.402 271.093 520.402 271.42Z" fill="#03A89E"/>
<path d="M535.73 269.477L528.451 268.442L520.636 323.439L527.915 324.473L535.73 269.477Z" fill="#3A36DB"/>
<path d="M535.758 269.459L528.406 268.479L531.51 263.578L533.144 261.127L534.124 263.904L535.758 269.459Z" fill="#FF8C64"/>
<path d="M528.509 320.523L521.23 319.488L520.656 323.532L527.935 324.567L528.509 320.523Z" fill="#06152B"/>
<path d="M526.936 327.62L520.564 326.64C520.238 326.64 520.074 326.313 520.074 326.149L520.401 323.372L527.753 324.352L527.426 327.13C527.426 327.456 527.263 327.62 526.936 327.62Z" fill="#EF452F"/>
<path d="M534.124 263.904L531.51 263.578L533.143 261.127L534.124 263.904Z" fill="#06152B"/>
<path d="M521.182 319.372L528.461 320.406L528.875 317.495L521.596 316.46L521.182 319.372Z" fill="#1B48CA"/>
<path opacity="0.6" d="M529.876 271.42L524.158 312.099C524.158 312.426 524.322 312.753 524.648 312.753C524.975 312.753 525.302 312.589 525.302 312.263L531.02 271.583C531.02 271.256 530.856 270.93 530.53 270.93C530.203 270.93 529.876 271.093 529.876 271.42Z" fill="#3A36DB"/>
<path opacity="0.6" d="M532.654 271.91L526.936 312.589C526.936 312.916 527.099 313.243 527.426 313.243C527.752 313.243 528.079 313.079 528.079 312.752L533.797 272.073C533.797 271.746 533.634 271.419 533.307 271.419C532.98 271.256 532.817 271.583 532.654 271.91Z" fill="#3A36DB"/>
<path d="M538.21 290.698L537.72 293.639L537.393 296.416L536.903 300.501L536.577 303.115L535.923 307.362L535.596 309.976L535.106 314.06L534.78 316.674L534.289 320.922L533.963 323.536L533.309 327.784L532.982 330.234L532.656 332.521H503.739L503.412 330.234L503.085 327.784L502.595 323.536L502.269 320.922L501.778 316.674L501.452 314.06L500.798 309.976L500.471 307.362L499.981 303.115L499.655 300.501L499.165 296.416L498.838 293.639L498.348 290.698H538.21Z" fill="#FF69B4"/>
<path d="M537.718 293.639L537.392 296.416H499.163L498.836 293.639H537.718Z" fill="#FF69B4"/>
<path d="M536.903 300.501L536.576 303.115H499.981L499.654 300.501H536.903Z" fill="#FF69B4"/>
<path d="M535.922 307.36L535.596 309.974H500.797L500.471 307.36H535.922Z" fill="#FF69B4"/>
<path d="M535.104 314.061L534.777 316.674H501.776L501.449 314.061H535.104Z" fill="#FF69B4"/>
<path d="M534.286 320.923L533.96 323.537H502.592L502.266 320.923H534.286Z" fill="#FF69B4"/>
<path d="M533.306 327.782L532.979 330.233H503.409L503.082 327.782H533.306Z" fill="#FF69B4"/>
<path opacity="0.2" d="M212.965 99.1667C238.68 99.1667 259.526 78.3206 259.526 52.6057C259.526 26.8908 238.68 6.0448 212.965 6.0448C187.251 6.0448 166.405 26.8908 166.405 52.6057C166.405 78.3206 187.251 99.1667 212.965 99.1667Z" fill="#3A36DB"/>
<path d="M212.966 93.1219C238.681 93.1219 259.527 72.2759 259.527 46.561C259.527 20.8461 238.681 0 212.966 0C187.251 0 166.405 20.8461 166.405 46.561C166.405 72.2759 187.251 93.1219 212.966 93.1219Z" fill="#59C65B"/>
<path d="M212.964 84.4627C233.876 84.4627 250.866 67.472 250.866 46.5604C250.866 25.6489 233.876 8.6582 212.964 8.6582C192.052 8.6582 175.062 25.6489 175.062 46.5604C175.062 67.472 192.052 84.4627 212.964 84.4627Z" fill="white"/>
<path opacity="0.2" d="M175.062 46.5605C175.062 47.5407 175.062 48.5209 175.225 49.5011C176.695 30.0599 193.196 14.5396 212.964 14.5396C232.895 14.5396 249.233 29.8965 250.703 49.5011C250.703 48.5209 250.866 47.5407 250.866 46.5605C250.866 25.6489 233.876 8.6582 212.964 8.6582C192.052 8.6582 175.062 25.6489 175.062 46.5605Z" fill="#59C65B"/>
<path d="M212.966 50.4825C213.292 50.4825 213.619 50.3191 213.782 50.1558L232.407 25.1599C232.734 24.6698 232.57 24.1797 232.243 23.8529C231.753 23.5262 231.263 23.6895 230.937 24.0163L212.802 48.522L192.054 39.3732C191.564 39.2099 191.074 39.3732 190.747 39.8633C190.584 40.3535 190.747 40.8436 191.237 41.1703L212.476 50.4825C212.639 50.4825 212.802 50.4825 212.966 50.4825Z" fill="#06152B"/>
<path d="M492.164 301.607L453.268 433.049C451.479 438.862 446.114 442.885 440.153 442.885L282.183 443.332C273.838 443.332 267.131 436.328 267.578 427.982C268.025 420.233 274.434 414.123 282.183 414.123H342.54L390.974 279.401H475.473C487.097 279.401 495.442 290.578 492.164 301.607Z" fill="#99B2C6"/>
<path d="M394.401 425.598C374.565 425.598 358.485 425.331 358.485 425.001C358.485 424.672 374.565 424.405 394.401 424.405C414.236 424.405 430.316 424.672 430.316 425.001C430.316 425.331 414.236 425.598 394.401 425.598Z" fill="#06152B"/>
<path d="M480.539 283.575C480.241 283.426 469.511 314.871 456.545 353.916C443.58 392.812 433.297 424.406 433.595 424.555C433.893 424.704 444.623 393.259 457.588 354.214C470.554 315.318 480.837 283.575 480.539 283.575Z" fill="#06152B"/>
<path d="M365.044 559.724L374.73 559.426V442.886H365.044V559.724Z" fill="#FFD66B"/>
<path d="M414.67 559.127H325.104L365.64 545.118H375.326L414.67 559.127Z" fill="#FFD66B"/>
<path d="M437.322 249.149L422.568 323.216L425.251 378.803L325.551 362.261L329.426 313.678L329.575 273.44L305.134 320.831L286.059 284.021L320.931 220.982C327.339 214.425 334.791 209.507 343.733 206.228C348.054 204.589 352.674 203.695 358.039 203.546C369.514 207.123 380.99 207.123 392.614 203.546C393.955 203.695 395.892 203.844 398.426 204.142C398.575 204.142 398.724 204.142 398.873 204.142C420.035 206.676 436.13 224.261 437.322 245.572V249.149Z" fill="#FF69B4"/>
<path d="M398.277 204.142C398.277 204.142 439.26 204.44 444.327 247.658L445.072 279.401L409.753 279.103L398.277 204.142Z" fill="#FF69B4"/>
<path d="M300.365 259.729C300.365 260.027 332.555 260.325 372.346 260.325C412.136 260.325 444.326 260.027 444.326 259.729C444.326 259.431 412.136 259.133 372.346 259.133C332.555 259.133 300.365 259.431 300.365 259.729Z" fill="white"/>
<path d="M300.365 266.584C300.365 266.882 332.555 267.18 372.346 267.18C412.136 267.18 444.326 266.882 444.326 266.584C444.326 266.286 412.136 265.988 372.346 265.988C332.555 265.988 300.365 266.286 300.365 266.584Z" fill="white"/>
<path d="M302.749 254.067C302.749 254.365 334.492 254.663 373.538 254.663C412.583 254.663 444.326 254.365 444.326 254.067C444.326 253.769 412.583 253.471 373.538 253.471C334.343 253.471 302.749 253.769 302.749 254.067Z" fill="white"/>
<path d="M330.023 320.831C330.321 320.831 330.172 303.246 329.725 281.637C329.278 260.028 328.681 242.442 328.234 242.442C327.936 242.442 328.085 260.028 328.532 281.637C329.128 303.246 329.725 320.831 330.023 320.831Z" fill="#06152B"/>
<path d="M344.03 292.367C344.03 292.367 324.657 293.708 321.229 298.924C317.801 303.991 312.436 318.596 314.374 318.745C316.46 318.894 317.801 317.702 317.801 317.702L323.167 308.313C323.167 308.313 322.272 317.404 325.551 317.553C328.681 317.702 344.478 320.832 344.478 320.832L344.03 292.367Z" fill="#FFBE9D"/>
<path d="M444.924 270.906V320.831C444.328 332.455 433.3 340.801 421.973 338.416L343.883 322.321L344.032 290.28L411.392 303.245L412.287 269.416L444.924 270.906Z" fill="#FF69B4"/>
<path d="M400.364 334.392C400.364 334.392 400.066 334.243 399.321 334.094C398.576 333.945 397.533 333.647 396.34 333.349C393.658 332.753 389.783 332.008 384.865 330.965C374.88 328.878 360.872 326.047 344.18 322.619L344.628 323.066C344.628 313.081 344.628 301.904 344.628 290.131L344.031 290.727C348.502 291.621 353.122 292.515 357.742 293.41C377.414 297.135 395.893 300.712 411.392 303.693L411.988 303.842V303.246C411.541 288.343 411.094 275.973 410.796 267.181C410.647 262.859 410.498 259.58 410.349 257.196C410.349 256.153 410.2 255.258 410.2 254.513C410.2 253.917 410.051 253.619 410.051 253.619C410.051 253.619 410.051 253.917 410.051 254.513C410.051 255.258 410.051 256.004 410.051 257.196C410.051 259.58 410.2 263.008 410.2 267.33C410.349 276.122 410.647 288.492 411.094 303.395L411.69 302.947C396.191 299.967 377.712 296.39 358.04 292.515C353.271 291.621 348.651 290.727 344.329 289.833L343.733 289.684V290.28C343.733 302.053 343.733 313.081 343.733 323.215V323.662L344.18 323.811C360.872 327.09 374.88 329.773 384.865 331.71C389.783 332.604 393.658 333.349 396.34 333.796C397.682 333.945 398.576 334.243 399.47 334.392C400.066 334.392 400.364 334.392 400.364 334.392Z" fill="#06152B"/>
<path d="M355.505 204.142C355.505 204.142 355.356 204.44 355.207 204.887C355.058 205.334 354.76 206.079 354.611 207.122C354.164 209.06 354.015 212.04 354.909 215.468C355.803 218.896 358.188 222.77 361.616 225.9C365.192 229.179 370.259 231.265 375.773 231.265C381.287 231.265 386.503 229.03 389.782 225.602C393.06 222.174 394.551 217.853 394.998 214.276C395.445 210.699 394.7 207.719 393.955 205.93C393.657 205.036 393.21 204.291 392.911 203.844C392.613 203.397 392.464 203.099 392.464 203.248C392.315 203.248 392.911 204.291 393.508 206.079C394.104 207.868 394.551 210.699 394.104 214.127C393.657 217.554 392.166 221.578 388.888 224.857C385.758 228.135 380.84 230.222 375.624 230.222C370.408 230.222 365.49 228.284 362.063 225.155C358.635 222.174 356.4 218.598 355.356 215.17C354.313 211.891 354.462 208.911 354.611 207.122C355.356 205.185 355.654 204.142 355.505 204.142Z" fill="#06152B"/>
<path d="M351.779 324.855C351.928 324.855 351.928 322.918 351.779 319.937C351.63 316.956 351.481 312.784 351.481 308.164C351.481 303.544 351.481 299.371 351.63 296.391C351.779 293.41 351.779 291.473 351.63 291.473C351.481 291.473 351.183 293.261 350.885 296.391C350.587 299.371 350.438 303.693 350.438 308.313C350.438 312.933 350.736 317.106 351.034 320.235C351.332 323.067 351.63 325.004 351.779 324.855Z" fill="#FAFAFA"/>
<path d="M355.804 325.749C355.953 325.749 355.953 323.812 355.953 320.831C355.953 317.404 355.804 313.38 355.804 309.058C355.804 304.736 355.804 300.713 355.804 297.285C355.804 294.304 355.804 292.367 355.655 292.367C355.506 292.367 355.208 294.155 355.059 297.285C354.91 300.265 354.761 304.438 354.761 309.058C354.761 313.678 354.91 317.851 355.208 320.831C355.357 323.961 355.655 325.749 355.804 325.749Z" fill="#FAFAFA"/>
<path d="M277.563 524.105L262.81 564.79L241.797 593.553C240.306 595.639 240.902 598.62 242.989 599.961C244.181 600.706 245.671 600.855 247.013 600.259C255.507 596.682 286.505 583.717 287.399 580.736C288.442 577.16 308.412 533.494 308.412 533.494L277.563 524.105Z" fill="#FF69B4"/>
<g opacity="0.6">
<g opacity="0.6">
<path d="M243.138 599.962L288.592 578.055L287.996 579.694C287.4 581.184 286.357 582.376 285.015 583.122C281.29 585.059 270.858 590.424 247.46 600.26C245.97 600.856 244.331 600.707 243.138 599.962Z" fill="#93079F"/>
</g>
</g>
<g opacity="0.6">
<g opacity="0.6">
<g opacity="0.6">
<path opacity="0.6" d="M285.462 561.81C284.121 562.108 283.226 563.449 283.525 564.791C283.823 566.132 285.164 567.026 286.505 566.728C287.846 566.43 288.89 564.791 288.591 563.598C288.144 562.406 286.505 561.363 285.313 561.959" fill="white"/>
</g>
</g>
</g>
<path d="M259.233 585.952C258.935 585.952 258.935 583.568 256.848 581.482C254.911 579.395 252.526 579.097 252.526 578.799C252.526 578.65 253.123 578.501 254.166 578.799C255.209 579.097 256.401 579.693 257.593 580.885C258.637 582.078 259.233 583.419 259.382 584.462C259.531 585.356 259.382 585.952 259.233 585.952Z" fill="#06152B"/>
<path d="M254.167 590.274C253.869 590.423 253.124 588.485 251.335 587.144C249.547 585.654 247.61 585.356 247.61 585.058C247.61 584.76 249.845 584.76 251.931 586.399C254.018 587.889 254.465 590.125 254.167 590.274Z" fill="#06152B"/>
<path d="M267.281 581.035C266.983 581.184 265.791 578.353 263.108 575.968C260.426 573.435 257.594 572.541 257.743 572.243C257.743 571.945 261.022 572.541 263.853 575.223C266.685 577.906 267.43 581.035 267.281 581.035Z" fill="#06152B"/>
<path d="M272.794 569.112C272.645 569.261 270.708 567.473 267.877 566.28C265.045 564.939 262.512 564.79 262.512 564.641C262.512 564.343 265.194 564.194 268.324 565.535C271.304 566.728 272.944 568.963 272.794 569.112Z" fill="#06152B"/>
<path d="M277.415 557.339C277.266 557.488 275.478 555.252 272.348 554.209C269.219 553.017 266.536 553.762 266.536 553.464C266.536 553.315 267.132 553.017 268.324 552.868C269.517 552.719 271.156 552.719 272.795 553.315C274.435 553.911 275.776 554.805 276.521 555.699C277.266 556.594 277.415 557.19 277.415 557.339Z" fill="#06152B"/>
<path d="M273.242 551.974C273.242 551.974 273.242 551.378 273.838 550.484C274.285 549.59 275.179 548.249 276.669 546.907C277.414 546.311 278.159 545.566 279.501 545.417C280.097 545.417 280.991 545.864 281.289 546.46C281.587 547.205 281.438 547.951 281.289 548.547C280.246 551.08 277.116 552.719 274.136 551.974C271.155 551.229 269.218 548.547 268.92 545.864C268.92 545.268 268.92 544.374 269.516 543.927C270.112 543.331 271.006 543.331 271.602 543.778C272.794 544.374 273.242 545.417 273.689 546.162C274.583 547.802 275.03 549.292 275.179 550.335C275.328 551.378 275.328 551.974 275.328 551.974C275.179 551.974 275.03 549.59 273.093 546.46C272.645 545.715 272.049 544.821 271.155 544.374C270.708 544.225 270.261 544.225 270.112 544.523C269.814 544.821 269.665 545.268 269.814 545.864C270.112 548.1 271.9 550.484 274.434 551.08C276.967 551.676 279.799 550.335 280.544 548.249C280.693 547.802 280.842 547.205 280.693 546.758C280.544 546.311 280.246 546.162 279.799 546.162C278.905 546.162 278.01 546.758 277.265 547.354C274.136 549.739 273.391 552.123 273.242 551.974Z" fill="#06152B"/>
<path d="M215.269 513.524L216.611 546.608C216.611 546.608 183.526 558.978 183.079 565.088L247.162 564.939L247.311 513.375L215.269 513.524Z" fill="#FF69B4"/>
<g opacity="0.6">
<g opacity="0.6">
<path opacity="0.6" d="M236.43 543.777C237.623 544.075 238.517 545.565 238.219 546.758C237.921 547.95 236.579 548.844 235.238 548.546C234.046 548.248 232.854 546.609 233.301 545.416C233.748 544.224 235.387 543.181 236.579 543.926" fill="white"/>
</g>
</g>
<g opacity="0.6">
<path d="M247.162 564.939V559.872L185.464 561.959C185.464 561.959 182.633 563.151 182.931 565.237L247.162 564.939Z" fill="#93079F"/>
</g>
<path d="M215.567 546.31C215.567 546.608 217.207 546.757 218.697 547.8C220.336 548.694 221.081 550.185 221.379 550.036C221.677 550.036 221.23 548.098 219.293 546.906C217.356 545.565 215.418 546.012 215.567 546.31Z" fill="#06152B"/>
<path d="M208.86 548.992C208.86 549.29 210.202 549.887 211.245 551.079C212.288 552.42 212.586 553.761 212.884 553.761C213.182 553.761 213.331 551.973 211.99 550.334C210.649 548.843 208.86 548.694 208.86 548.992Z" fill="#06152B"/>
<path d="M204.986 557.04C205.284 557.04 205.731 555.55 204.837 553.761C204.092 551.973 202.602 551.377 202.453 551.675C202.303 551.973 203.198 552.867 203.943 554.208C204.539 555.699 204.688 557.04 204.986 557.04Z" fill="#06152B"/>
<path d="M216.015 538.709C216.164 539.008 217.654 538.56 219.293 538.709C221.081 538.859 222.423 539.306 222.572 539.157C222.721 538.858 221.38 537.815 219.293 537.666C217.356 537.368 215.865 538.411 216.015 538.709Z" fill="#06152B"/>
<g opacity="0.3">
<path opacity="0.3" d="M215.568 520.081L215.717 525.893L247.311 525.595V520.23L215.568 520.081Z" fill="#06152B"/>
</g>
<path d="M215.865 532.004C215.865 532.153 217.057 532.302 219.144 532.004C220.187 531.855 221.23 531.557 222.571 530.961C223.167 530.663 223.764 530.365 224.36 529.918C224.658 529.769 224.956 529.471 225.254 529.173C225.552 528.874 225.85 527.98 225.403 527.533C225.105 527.086 224.509 526.788 224.062 526.788C223.615 526.788 223.167 526.937 222.869 526.937C222.124 527.086 221.528 527.384 220.932 527.682C219.74 528.278 218.697 529.024 217.951 529.62C216.461 530.961 216.014 532.153 216.014 532.302C216.163 532.451 216.908 531.408 218.399 530.216C219.144 529.62 220.187 529.023 221.23 528.576C221.826 528.278 222.422 528.129 223.018 527.98C223.764 527.831 224.211 527.831 224.509 528.129C224.509 528.278 224.509 528.278 224.509 528.427C224.36 528.576 224.062 528.725 223.764 529.024C223.167 529.322 222.571 529.769 222.124 530.067C221.081 530.663 219.889 530.961 218.995 531.259C217.206 531.706 215.865 531.855 215.865 532.004Z" fill="#06152B"/>
<path d="M216.312 532.45C216.461 532.45 217.057 531.407 217.206 529.32C217.206 528.277 217.206 527.085 216.759 525.744C216.61 525.148 216.312 524.402 215.865 523.806C215.418 523.21 214.971 522.316 213.778 522.167C213.182 522.167 212.586 522.614 212.437 523.061C212.288 523.508 212.139 523.806 212.139 524.253C211.99 524.999 211.99 525.744 212.139 526.489C212.288 527.83 212.884 529.022 213.48 529.767C214.673 531.407 216.014 531.854 216.014 531.705C216.163 531.556 214.971 530.96 214.076 529.32C213.629 528.575 213.182 527.532 213.033 526.34C213.033 525.744 213.033 525.148 213.033 524.551C213.182 523.806 213.331 523.359 213.629 523.359C213.927 523.359 214.524 523.806 214.822 524.402C215.12 524.999 215.418 525.595 215.567 526.191C216.014 527.383 216.163 528.426 216.163 529.32C216.461 531.258 216.163 532.45 216.312 532.45Z" fill="#06152B"/>
<path d="M247.31 355.107C285.163 358.982 335.386 364.198 335.386 364.198L328.53 425.896C328.53 425.896 254.761 406.373 255.209 408.012C255.805 409.652 251.781 539.306 251.781 539.306H207.371L206.476 392.514C206.327 370.308 225.254 352.872 247.31 355.107Z" fill="#06152B"/>
<path d="M426.145 379.995V399.07C426.145 412.036 411.242 425.896 398.276 425.896H388.142C380.244 425.896 367.725 420.083 361.317 415.464L357.443 412.632L311.095 555.997C311.095 555.997 258.19 546.459 258.19 544.82C258.19 543.181 294.106 427.386 310.648 373.587C317.354 351.68 340.9 338.863 362.659 346.315C363.404 346.613 364.149 346.911 364.894 347.209C388.589 356.896 426.145 379.995 426.145 379.995Z" fill="#06152B"/>
<path d="M258.34 544.969C258.34 544.969 258.489 544.82 258.638 544.522C258.787 544.075 258.936 543.628 259.234 543.032C259.681 541.691 260.426 539.753 261.32 537.071C263.108 531.855 265.493 524.404 268.473 515.015C274.435 496.386 282.333 470.455 290.977 441.842C295.299 427.535 299.322 413.825 303.048 401.455C304.836 395.196 306.625 389.384 308.264 383.87C309.158 381.038 309.903 378.505 310.648 375.822C311.394 373.289 312.139 370.755 313.033 368.52C314.821 364.049 317.653 360.621 320.484 357.939C323.316 355.256 325.998 353.319 328.383 351.829C330.618 350.339 332.407 349.146 333.748 348.401C334.344 348.103 334.791 347.805 335.089 347.507C335.387 347.358 335.536 347.209 335.536 347.209C335.536 347.209 335.387 347.209 335.089 347.507C334.642 347.656 334.195 347.954 333.599 348.252C332.258 348.997 330.469 350.041 328.234 351.531C325.849 353.021 323.167 354.958 320.186 357.492C317.355 360.174 314.374 363.602 312.437 368.222C311.394 370.457 310.648 372.991 309.903 375.524C309.158 378.058 308.264 380.74 307.519 383.423C305.88 388.937 304.091 394.898 302.154 401.008C298.428 413.378 294.255 427.088 289.933 441.395C281.29 470.008 273.54 495.79 267.877 514.717C265.046 523.956 262.661 531.557 261.022 536.922C260.277 539.455 259.532 541.542 259.085 542.883C258.936 543.479 258.787 544.075 258.638 544.522C258.34 544.671 258.34 544.969 258.34 544.969Z" fill="#06152B"/>
<path d="M247.162 389.533C246.864 389.682 249.398 393.557 251.484 398.624C253.57 403.691 254.465 408.161 254.912 408.161C255.21 408.161 254.763 403.542 252.527 398.177C250.292 392.812 247.311 389.235 247.162 389.533Z" fill="#06152B"/>
<path d="M238.667 395.493C238.518 395.791 242.393 397.43 246.268 400.56C250.291 403.69 252.825 406.968 253.123 406.819C253.421 406.67 251.186 402.944 247.013 399.666C242.84 396.387 238.667 395.195 238.667 395.493Z" fill="#06152B"/>
<path d="M310.797 556.146C311.095 556.295 323.614 517.846 338.666 470.455C353.866 423.064 365.789 384.465 365.491 384.465C365.193 384.316 352.674 422.766 337.622 470.157C322.571 517.548 310.499 555.997 310.797 556.146Z" fill="#06152B"/>
<path d="M367.576 332.455L216.014 333.946L187.848 254.066L297.98 254.812L323.613 326.643L367.576 327.239V332.455Z" fill="#99B2C6"/>
<path d="M251.782 300.862C248.408 300.862 245.672 298.127 245.672 294.752C245.672 291.377 248.408 288.642 251.782 288.642C255.157 288.642 257.892 291.377 257.892 294.752C257.892 298.127 255.157 300.862 251.782 300.862Z" fill="white"/>
<path d="M379.944 116.364C378.454 110.999 374.579 108.466 369.363 106.677C364.147 104.889 358.037 105.932 353.715 109.211C350.734 111.446 348.499 114.725 345.071 115.917C339.408 117.855 332.702 113.682 327.188 116.215C323.909 117.706 322.121 121.729 322.866 125.157C323.76 128.585 327.188 131.267 330.765 131.118C327.039 132.459 325.847 137.824 328.082 141.103C330.318 144.382 334.788 145.723 338.663 144.978C342.538 144.233 345.966 141.848 348.946 139.166C351.927 136.483 354.609 133.503 357.739 131.118C360.868 128.734 364.743 126.945 368.767 127.094C374.132 127.392 378.752 131.416 381.136 136.185C383.521 140.954 384.117 146.468 384.415 151.833C384.713 157.198 384.862 162.712 386.352 167.779C386.501 168.375 386.799 169.12 387.395 169.269C388.29 169.567 389.035 168.673 389.482 167.779C394.4 158.688 397.529 148.703 398.573 138.42C399.169 132.459 399.02 126.796 395.741 121.878C392.313 116.811 383.968 113.086 379.944 116.364Z" fill="#06152B"/>
<path d="M390.377 141.253L393.059 201.609C393.506 211.892 392.165 227.093 375.921 227.093C361.763 226.05 357.59 212.786 357.292 203.248C357.143 198.777 356.845 194.903 356.845 194.456C356.845 194.456 341.495 193.711 339.558 178.51C338.664 171.207 338.068 156.006 337.77 142.147C337.323 127.393 348.5 114.726 363.105 113.235L364.595 113.086C380.541 112.341 389.93 125.307 390.377 141.253Z" fill="#FFAA8C"/>
<path d="M356.695 194.158C356.695 194.158 366.382 193.86 375.92 186.408C375.92 186.408 372.343 197.883 357.142 198.032L356.695 194.158Z" fill="#EB996E"/>
<path d="M343.281 151.833C343.43 153.025 344.473 153.919 345.665 153.77C346.858 153.77 347.752 152.727 347.752 151.535C347.603 150.343 346.559 149.448 345.367 149.597C344.026 149.746 343.132 150.641 343.281 151.833Z" fill="#06152B"/>
<path d="M341.791 149.299C342.089 149.597 343.579 148.107 345.964 147.958C348.348 147.659 350.136 148.703 350.285 148.405C350.434 148.256 350.136 147.808 349.242 147.361C348.497 146.914 347.156 146.467 345.666 146.616C344.175 146.765 342.983 147.51 342.387 148.107C341.791 148.554 341.642 149.15 341.791 149.299Z" fill="#06152B"/>
<path d="M366.232 150.193C366.381 151.385 367.424 152.28 368.616 152.131C369.809 152.131 370.703 151.087 370.703 149.895C370.554 148.703 369.511 147.809 368.318 147.958C366.977 148.107 366.083 149.001 366.232 150.193Z" fill="#06152B"/>
<path d="M364.743 147.213C365.041 147.511 366.531 146.021 368.916 145.872C371.3 145.574 373.089 146.617 373.238 146.319C373.387 146.17 373.089 145.723 372.194 145.275C371.449 144.828 370.108 144.381 368.618 144.53C367.127 144.679 365.935 145.425 365.339 146.021C364.743 146.617 364.594 147.064 364.743 147.213Z" fill="#06152B"/>
<path d="M358.185 165.394C358.185 165.245 356.695 165.096 354.311 165.096C353.714 165.096 353.118 165.096 352.969 164.649C352.82 164.202 352.969 163.606 353.118 162.86C353.565 161.37 354.013 159.731 354.46 158.092C356.248 151.385 357.44 145.871 357.142 145.871C356.844 145.871 355.205 151.236 353.416 157.943C352.969 159.582 352.522 161.221 352.224 162.711C352.075 163.457 351.777 164.202 352.224 165.096C352.373 165.543 352.969 165.841 353.267 165.841C353.714 165.99 354.013 165.841 354.311 165.841C356.695 165.692 358.185 165.543 358.185 165.394Z" fill="#06152B"/>
<path d="M365.19 166.288C364.743 166.288 365.041 168.822 363.104 170.908C361.166 172.994 358.335 172.994 358.484 173.293C358.484 173.442 359.08 173.74 360.272 173.591C361.464 173.442 362.954 172.994 364.147 171.802C365.339 170.61 365.786 168.971 365.786 167.928C365.637 166.884 365.339 166.288 365.19 166.288Z" fill="#06152B"/>
<path d="M363.104 138.123C363.402 138.719 365.638 138.123 368.469 138.272C371.301 138.272 373.536 138.868 373.834 138.272C373.983 137.973 373.536 137.377 372.493 136.93C371.599 136.483 370.109 136.036 368.469 136.036C366.83 136.036 365.34 136.483 364.446 136.93C363.551 137.377 363.104 137.824 363.104 138.123Z" fill="#06152B"/>
<path d="M341.942 142.445C342.389 142.892 344.028 142.146 345.817 141.997C347.754 141.699 349.393 141.997 349.691 141.401C349.84 141.103 349.542 140.656 348.797 140.209C348.052 139.762 346.86 139.464 345.518 139.613C344.177 139.762 343.134 140.358 342.538 140.954C341.942 141.55 341.793 142.146 341.942 142.445Z" fill="#06152B"/>
<path d="M390.228 152.579C390.526 152.43 400.362 148.406 401.107 158.838C401.852 169.27 391.271 167.929 391.271 167.631C391.271 167.184 390.228 152.579 390.228 152.579Z" fill="#FFBE9D"/>
<path d="M394.101 163.31C394.101 163.31 394.251 163.459 394.549 163.608C394.847 163.757 395.443 163.757 395.89 163.608C396.933 163.161 397.827 161.372 397.678 159.435C397.678 158.541 397.38 157.647 396.933 156.902C396.486 156.156 396.039 155.709 395.443 155.56C394.847 155.411 394.549 155.858 394.4 156.156C394.251 156.455 394.4 156.604 394.251 156.753C394.251 156.753 393.952 156.604 394.101 156.156C394.101 156.007 394.251 155.709 394.4 155.411C394.698 155.262 394.996 155.113 395.443 155.113C396.188 155.113 397.082 155.858 397.529 156.604C397.976 157.349 398.274 158.392 398.423 159.435C398.572 161.522 397.529 163.608 396.188 164.055C395.443 164.353 394.847 164.055 394.549 163.906C394.251 163.608 394.101 163.459 394.101 163.31Z" fill="#EB996E"/>
<path d="M334.194 139.316C341.049 140.359 348.352 137.825 353.121 132.907C356.548 129.331 358.784 124.562 363.255 122.624C366.235 121.283 369.812 121.581 372.792 122.922C375.773 124.264 378.306 126.35 380.691 128.735C378.604 136.782 381.436 145.128 384.268 152.877C384.566 153.771 385.013 154.665 385.758 155.113C387.099 155.858 388.887 154.964 389.782 153.771C391.272 151.834 391.719 149.151 391.868 146.767C392.315 141.104 391.868 135.292 389.931 129.927C388.142 124.562 384.864 119.644 380.393 116.067C374.73 111.745 367.427 109.957 360.274 110.851C353.121 111.745 346.563 115.024 341.496 119.942C339.112 122.177 336.877 124.86 335.982 127.989" fill="#06152B"/>
<path d="M540.599 477.114C535.234 474.431 528.975 473.984 523.162 475.027C520.033 475.623 516.754 476.517 514.519 478.902C512.432 481.286 511.985 485.459 514.37 487.546C515.86 488.738 517.946 488.887 519.884 488.887C524.504 488.887 529.571 487.993 533.296 490.824C535.383 492.463 536.873 494.997 539.258 495.891C541.791 496.636 544.473 495.146 545.815 492.911C547.156 490.675 547.156 487.844 546.56 485.459C546.709 485.31 545.964 479.796 540.599 477.114Z" fill="#03A89E"/>
<path d="M552.818 453.567C549.54 458.186 543.281 456.696 540.3 453.865C537.319 451.033 536.127 446.86 534.935 442.986C532.401 434.044 529.719 424.655 531.656 415.564C532.252 412.882 533.296 410.199 535.233 408.113C537.17 406.027 540.151 404.834 542.833 405.579C545.963 406.474 548.049 409.603 549.391 412.435C553.563 421.227 555.799 430.765 555.799 440.452C555.948 445.072 555.352 449.841 552.818 453.567Z" fill="#03A89E"/>
<path d="M561.76 460.273C558.183 456.101 557.587 449.99 559.077 444.774C560.717 439.558 564.144 435.088 568.317 431.362C573.086 427.04 578.749 423.761 584.859 421.675C587.244 420.781 589.777 420.185 592.311 420.483C594.844 420.781 597.378 421.973 598.57 424.209C600.358 427.487 598.57 431.511 596.781 434.789C593.652 440.602 589.926 446.116 585.902 451.332C582.624 455.504 578.898 459.677 573.98 461.466C569.062 463.403 563.846 463.105 561.313 459.677" fill="#03A89E"/>
<path d="M553.117 523.609C553.117 523.609 552.968 522.864 552.819 521.523C552.67 520.033 552.521 518.095 552.223 515.711C551.925 513.326 551.627 510.346 550.882 507.216C550.286 504.087 549.093 500.659 547.752 497.231C546.411 493.804 544.623 490.674 542.685 488.29C540.748 485.756 538.363 483.968 536.277 482.925C534.191 481.882 532.253 481.434 530.912 481.285C529.571 481.136 528.826 480.987 528.826 480.987C528.826 480.987 529.571 480.987 530.912 480.987C532.253 481.136 534.34 481.434 536.575 482.478C538.81 483.521 541.344 485.309 543.43 487.843C545.517 490.376 547.305 493.506 548.646 497.082C549.988 500.51 551.031 503.938 551.627 507.216C552.223 510.346 552.521 513.326 552.819 515.711C552.968 518.095 553.117 520.182 553.117 521.523C553.117 522.864 553.117 523.609 553.117 523.609Z" fill="#06152B"/>
<path d="M552.67 519.139C552.67 519.139 552.67 518.841 552.67 518.095C552.67 517.35 552.67 516.456 552.67 515.264C552.67 512.879 552.67 509.303 552.521 504.981C552.372 496.337 551.627 486.948 550.137 473.834C548.795 461.465 547.007 447.009 545.07 437.62C544.623 435.534 544.175 433.596 543.877 431.957C543.43 430.318 543.132 428.827 542.834 427.635C542.536 426.592 542.387 425.698 542.238 424.953C542.089 424.357 542.089 424.059 542.089 424.059C542.089 424.059 542.238 424.357 542.387 424.953C542.536 425.698 542.834 426.592 543.132 427.635C543.43 428.827 543.877 430.169 544.325 431.957C544.772 433.596 545.219 435.534 545.666 437.62C547.603 446.115 549.541 458.037 551.031 471.152C552.521 484.415 553.117 496.337 553.117 505.13C553.117 509.452 553.117 513.028 552.968 515.413C552.968 516.605 552.819 517.499 552.819 518.244C552.67 518.841 552.67 519.139 552.67 519.139Z" fill="#06152B"/>
<path d="M552.67 495.89C552.67 495.89 552.67 494.847 552.67 492.91C552.819 490.972 552.968 488.29 553.564 485.011C554.16 481.733 554.905 477.709 556.097 473.536C556.693 471.599 557.886 466.83 560.866 459.826C564.89 450.288 570.255 442.538 575.024 437.769C576.067 436.428 577.408 435.534 578.302 434.64C578.749 434.193 579.197 433.746 579.793 433.448C580.24 433.149 580.687 432.851 581.134 432.553C582.624 431.51 583.518 430.914 583.667 430.914C583.816 431.063 580.24 433.298 575.62 438.067C571 442.985 565.784 450.586 561.76 459.975C559.525 465.042 558.035 469.661 556.842 473.536C555.65 477.709 554.756 481.733 554.16 485.011C553.564 488.29 553.266 490.972 552.968 492.91C552.819 494.996 552.67 495.89 552.67 495.89Z" fill="#06152B"/>
<path d="M575.023 536.873L572.639 568.616H531.805L529.421 536.873H575.023Z" fill="#FFD66B"/>
<path d="M524.501 524.354H578.896V536.873H524.501V524.354Z" fill="#FFD66B"/>
<path d="M573.07 574.605L575.465 568.644H529.266L531.942 574.605H573.07Z" fill="#FFD66B"/>
<path d="M530.315 547.157C530.315 547.157 530.315 547.306 530.464 547.455C530.613 547.604 530.762 547.902 531.061 548.2C531.657 548.945 532.402 549.989 533.445 551.181L533.594 551.33C535.084 549.243 537.022 546.561 539.406 543.282H539.108C540.896 545.816 542.834 548.498 544.92 551.479L545.069 551.777L545.218 551.479C547.305 548.945 549.689 546.263 552.074 543.282H551.626C551.775 543.431 551.924 543.58 552.074 543.729C554.16 546.412 556.246 548.945 558.184 551.33L558.333 551.628L558.482 551.33C560.568 548.349 562.505 545.667 564.294 543.133H563.996C566.827 546.412 569.212 549.094 571.149 551.181L571.298 551.33L571.447 551.181C572.341 549.541 573.086 548.349 573.683 547.455C573.981 547.008 574.13 546.71 574.279 546.412C574.428 546.114 574.428 546.114 574.428 546.114C574.428 546.114 574.279 546.263 574.13 546.412C573.981 546.71 573.683 547.008 573.534 547.306C572.937 548.2 572.192 549.392 571.149 551.032H571.298C569.51 548.945 567.125 546.114 564.294 542.835L564.145 542.686L563.996 542.835C562.207 545.369 560.27 548.051 558.184 550.883H558.631C556.693 548.498 554.607 545.816 552.521 543.282C552.372 543.133 552.223 542.984 552.074 542.835L551.924 542.537L551.775 542.835C549.391 545.667 547.156 548.498 544.92 551.032H545.367C543.281 548.051 541.343 545.369 539.555 542.984L539.406 542.686L539.257 542.984C537.022 546.263 534.935 549.094 533.594 551.181H533.743C532.7 549.989 531.806 548.945 531.21 548.2C530.912 547.902 530.762 547.604 530.613 547.455C530.315 547.306 530.315 547.157 530.315 547.157Z" fill="#06152B"/>
<path d="M551.775 536.873C539.182 536.873 528.974 536.74 528.974 536.575C528.974 536.411 539.182 536.277 551.775 536.277C564.368 536.277 574.576 536.411 574.576 536.575C574.576 536.74 564.368 536.873 551.775 536.873Z" fill="#06152B"/>
<path d="M128.835 187.897L157.15 306.524H149.252L121.235 187.897H128.835Z" fill="#06152B"/>
<path d="M139.715 265.987C140.162 268.223 126.75 332.901 126.75 332.901H133.158L143.292 281.635L139.715 265.987Z" fill="#06152B"/>
<path d="M45.2289 418.445H178.162V559.425H45.2289V418.445Z" fill="#99B2C6"/>
<path d="M38.5229 439.01H45.0802V445.567H38.5229V439.01Z" fill="#06152B"/>
<path d="M38.5228 459.725H45.0801V466.282H38.5228V459.725Z" fill="#06152B"/>
<path d="M38.5229 480.589H45.0802V487.146H38.5229V480.589Z" fill="#06152B"/>
<path d="M38.5228 501.303H45.0801V507.86H38.5228V501.303Z" fill="#06152B"/>
<path d="M38.3732 482.377C38.3732 482.377 37.6281 482.228 36.4359 481.93C35.0946 481.781 33.3063 481.334 30.7728 481.334C28.3883 481.334 25.4078 481.781 22.7253 483.421C21.384 484.315 20.0427 485.507 19.2976 487.146C18.4034 488.786 18.1054 490.574 18.2544 492.511C18.4035 494.3 18.9995 496.088 19.8937 497.578C20.7879 499.069 21.9801 500.261 23.3214 501.155C25.8549 503.092 28.6864 503.837 31.0708 504.285C33.4553 504.583 35.3927 504.583 36.7339 504.434C38.0752 504.285 38.8203 504.136 38.8203 504.136C38.8203 504.136 38.0752 504.136 36.7339 504.136C35.3927 504.136 33.4553 504.136 31.2199 503.688C28.9844 503.241 26.3019 502.347 23.7685 500.559C21.384 498.771 19.1486 495.79 18.9996 492.362C18.8506 490.574 19.1486 488.935 19.8937 487.444C20.6389 485.954 21.8311 484.911 23.0233 484.017C25.5568 482.377 28.3883 481.93 30.7728 481.781C33.1572 481.781 34.9456 481.93 36.2868 482.079C37.6281 482.377 38.3732 482.526 38.3732 482.377Z" fill="#06152B"/>
<path d="M40.0137 461.812C40.0137 461.812 39.8647 461.663 39.4176 461.365C38.9705 461.216 38.3744 460.918 37.4802 460.619C35.6919 460.023 33.0094 459.576 29.8798 460.172C29.1346 460.321 28.2405 460.619 27.4953 461.067C26.7502 461.514 26.0051 462.408 25.707 463.451C25.1109 465.388 25.856 467.624 27.1973 469.412C27.9424 470.306 28.8366 471.051 29.8798 471.499C30.923 471.946 32.4132 471.946 33.4564 471.349C34.4996 470.753 35.5428 469.561 35.5428 468.22C35.5428 466.879 34.6487 465.537 33.4564 464.941C32.2642 464.345 30.923 464.345 29.5817 464.494C28.3895 464.792 27.1973 465.388 26.3031 466.133C24.3657 467.624 23.1735 469.859 23.0245 472.095C22.7264 474.33 23.6206 476.416 24.6638 478.056C25.856 479.695 27.3463 480.738 28.6876 481.483C31.6681 482.974 34.3506 483.272 36.139 483.421C37.0331 483.421 37.7783 483.57 38.2254 483.57C38.6724 483.57 38.9705 483.57 38.9705 483.57C38.9705 483.57 37.9273 483.421 36.139 483.272C34.3506 482.974 31.8171 482.676 28.9856 481.185C27.6443 480.44 26.154 479.397 25.1109 477.907C24.0677 476.416 23.3225 474.479 23.6206 472.393C23.9186 470.306 24.9618 468.369 26.7502 467.028C27.6443 466.283 28.6875 465.835 29.7307 465.537C30.7739 465.239 31.9662 465.388 33.0094 465.835C34.0526 466.283 34.6487 467.326 34.6487 468.369C34.6487 469.412 33.9035 470.306 33.0094 470.902C32.1152 471.499 30.923 471.499 30.0288 471.051C28.9856 470.753 28.2405 470.008 27.6443 469.263C26.3031 467.773 25.707 465.686 26.1541 463.898C26.6012 462.11 28.2405 461.216 29.8798 460.918C33.0094 460.172 35.5428 460.619 37.3312 461.067C39.1195 461.365 40.0137 461.961 40.0137 461.812Z" fill="#06152B"/>
<path d="M39.8643 441.543C39.8643 441.543 39.4172 441.394 38.374 441.245C37.4798 441.245 35.9895 441.245 34.3502 441.841C32.7109 442.438 30.9226 443.481 29.4323 445.12C27.942 446.908 26.8988 449.293 26.8988 451.975C26.7498 454.658 27.6439 457.191 28.9852 458.98C30.3264 460.768 32.1148 461.96 33.7541 462.556C35.3934 463.152 36.7347 463.302 37.6288 463.302C38.523 463.302 39.1191 463.152 39.1191 463.152C39.1191 463.003 36.8837 463.451 33.9031 461.96C32.4128 461.215 30.7735 460.172 29.5813 458.384C28.24 456.595 27.4949 454.36 27.6439 451.826C27.793 449.293 28.6871 447.057 30.0284 445.418C31.3696 443.779 33.158 442.736 34.6483 442.139C37.7779 441.245 39.8643 441.692 39.8643 441.543Z" fill="#06152B"/>
<path d="M138.669 343.632C138.669 343.632 138.073 344.526 137.477 346.315C136.881 348.103 136.285 350.785 135.689 354.362C135.093 357.939 134.645 362.261 134.198 367.179C133.751 372.245 133.304 377.909 132.559 384.317C132.41 385.956 132.112 387.446 131.814 389.086C131.516 390.725 131.069 392.364 130.324 393.855C129.578 395.345 128.386 396.686 127.045 397.878C125.704 399.071 124.362 400.263 122.723 401.157C119.594 403.094 115.868 404.436 111.993 404.883C108.118 405.33 103.946 404.734 100.22 402.796C96.4942 401.008 93.5137 397.431 92.6195 393.258C92.1724 391.172 92.3214 388.937 93.0666 386.85C93.8117 384.764 95.302 383.125 97.2394 381.932C99.0277 380.74 101.263 379.995 103.499 379.846C105.734 379.697 108.118 380.293 109.907 381.783C110.801 382.528 111.546 383.274 111.993 384.317C112.44 385.36 112.589 386.403 112.44 387.595C111.993 389.831 110.354 391.768 108.267 392.811C106.181 394.004 103.797 394.451 101.412 394.749C99.0277 395.047 96.6432 395.196 94.4078 395.196C89.6389 395.345 85.019 394.898 80.5482 394.451C71.4575 393.407 62.6648 391.917 54.3192 391.917C45.9736 391.768 37.7771 392.96 30.9218 396.388C27.4942 398.027 24.5136 400.263 22.2782 402.945C19.8937 405.628 18.4034 408.757 17.8073 411.887C16.466 418.295 17.9564 424.256 20.3408 428.727C22.8743 433.198 26.3019 436.179 29.1335 438.116C32.114 440.053 34.6475 441.246 36.4358 441.842C38.2242 442.438 39.1184 442.736 39.1184 442.736C39.1184 442.736 38.8203 442.587 38.3732 442.438C37.9261 442.289 37.181 441.991 36.4358 441.693C34.6475 440.947 32.114 439.904 29.2825 437.818C26.451 435.731 23.0233 432.751 20.6388 428.429C18.2544 424.107 16.9132 418.146 18.2544 412.036C18.9996 409.055 20.3408 405.926 22.7253 403.392C24.9607 400.859 27.9412 398.623 31.2198 397.133C37.9261 393.855 45.9736 392.662 54.3192 392.811C62.6648 392.96 71.4575 394.451 80.5482 395.345C85.1681 395.792 89.7879 396.239 94.5568 396.09C96.9413 396.09 99.3258 395.941 101.71 395.643C104.095 395.345 106.628 394.898 108.715 393.706C110.95 392.513 112.738 390.427 113.185 387.893C113.483 386.701 113.185 385.36 112.738 384.168C112.142 382.975 111.397 382.081 110.354 381.336C108.416 379.846 105.883 379.25 103.499 379.25C101.114 379.399 98.7296 380.144 96.7923 381.485C94.8549 382.826 93.2156 384.615 92.3214 386.85C91.4272 389.086 91.4273 391.47 91.8743 393.557C92.9175 398.027 96.0471 401.604 99.9219 403.541C103.797 405.479 108.118 406.075 111.993 405.628C116.017 405.181 119.743 403.839 123.021 401.902C124.661 400.859 126.151 399.816 127.343 398.474C128.684 397.133 129.877 395.941 130.771 394.302C131.516 392.662 131.963 391.023 132.261 389.384C132.559 387.744 132.857 386.105 133.006 384.615C133.751 378.356 134.198 372.544 134.645 367.477C135.092 362.41 135.54 358.088 135.987 354.66C136.434 351.083 137.03 348.401 137.626 346.613C137.924 345.718 138.073 344.973 138.371 344.675C138.52 343.781 138.669 343.632 138.669 343.632Z" fill="#06152B"/>
<path d="M52.6813 553.464C52.6813 553.464 52.6813 553.315 52.6813 552.867C52.6813 552.42 52.6813 551.824 52.6813 551.079C52.6813 549.44 52.6813 547.204 52.6813 544.075C52.6813 537.965 52.6813 529.023 52.8303 517.697C52.8303 495.045 52.9793 462.705 52.9793 423.958L52.6813 424.256C87.8519 424.256 128.984 424.256 172.947 424.256L172.5 423.809C172.5 471.498 172.5 515.908 172.5 553.315L172.798 553.017C136.733 553.017 106.779 553.166 85.7655 553.166C75.1845 553.166 66.988 553.166 61.3249 553.315C58.4934 553.315 56.407 553.315 54.9167 553.315C53.4264 553.464 52.6813 553.464 52.6813 553.464C52.6813 553.464 53.4264 553.464 54.9167 553.464C56.407 553.464 58.4934 553.464 61.3249 553.464C66.988 553.464 75.1845 553.464 85.6165 553.613C106.629 553.613 136.733 553.762 172.947 553.762H173.245V553.464C173.245 516.058 173.245 471.498 173.245 423.958V423.511H172.798C128.984 423.511 87.852 423.511 52.5323 423.511H52.2342V423.809C52.2342 462.556 52.3832 495.045 52.3832 517.697C52.3832 529.023 52.3832 537.965 52.5323 544.075C52.5323 547.055 52.5323 549.44 52.5323 550.93C52.5323 551.675 52.5323 552.271 52.5323 552.718C52.6813 553.315 52.6813 553.464 52.6813 553.464Z" fill="#06152B"/>
<path d="M87.106 440.502C86.7768 440.502 86.5099 440.235 86.5099 439.906C86.5099 439.577 86.7768 439.31 87.106 439.31C87.4353 439.31 87.7021 439.577 87.7021 439.906C87.7021 440.235 87.4353 440.502 87.106 440.502Z" fill="#06152B"/>
<path d="M83.8276 440.501C83.4984 440.501 83.2315 440.234 83.2315 439.905C83.2315 439.576 83.4984 439.309 83.8276 439.309C84.1568 439.309 84.4237 439.576 84.4237 439.905C84.4237 440.234 84.1568 440.501 83.8276 440.501Z" fill="#06152B"/>
<path d="M80.399 440.501C80.0698 440.501 79.8029 440.234 79.8029 439.905C79.8029 439.576 80.0698 439.309 80.399 439.309C80.7282 439.309 80.9951 439.576 80.9951 439.905C80.9951 440.234 80.7282 440.501 80.399 440.501Z" fill="#06152B"/>
<path d="M76.8785 440.591C76.5493 440.591 76.2824 440.324 76.2824 439.995C76.2824 439.666 76.5493 439.399 76.8785 439.399C77.2077 439.399 77.4746 439.666 77.4746 439.995C77.4746 440.324 77.2077 440.591 76.8785 440.591Z" fill="#06152B"/>
<path d="M73.4507 440.591C73.1215 440.591 72.8546 440.324 72.8546 439.995C72.8546 439.666 73.1215 439.399 73.4507 439.399C73.7799 439.399 74.0469 439.666 74.0469 439.995C74.0469 440.324 73.7799 440.591 73.4507 440.591Z" fill="#06152B"/>
<path d="M70.1167 440.501C69.7874 440.501 69.5206 440.234 69.5206 439.905C69.5206 439.576 69.7874 439.309 70.1167 439.309C70.4459 439.309 70.7128 439.576 70.7128 439.905C70.7128 440.234 70.4459 440.501 70.1167 440.501Z" fill="#06152B"/>
<path d="M66.8394 440.501C66.5102 440.501 66.2433 440.234 66.2433 439.905C66.2433 439.576 66.5102 439.309 66.8394 439.309C67.1686 439.309 67.4355 439.576 67.4355 439.905C67.4355 440.234 67.1686 440.501 66.8394 440.501Z" fill="#06152B"/>
<path d="M68.3296 442.886C68.0004 442.886 67.7335 442.619 67.7335 442.29C67.7335 441.96 68.0004 441.694 68.3296 441.694C68.6589 441.694 68.9258 441.96 68.9258 442.29C68.9258 442.619 68.6589 442.886 68.3296 442.886Z" fill="#06152B"/>
<path d="M71.6627 442.976C71.3335 442.976 71.0666 442.709 71.0666 442.38C71.0666 442.05 71.3335 441.783 71.6627 441.783C71.9919 441.783 72.2588 442.05 72.2588 442.38C72.2588 442.709 71.9919 442.976 71.6627 442.976Z" fill="#06152B"/>
<path d="M75.2379 442.976C74.9087 442.976 74.6418 442.709 74.6418 442.38C74.6418 442.05 74.9087 441.783 75.2379 441.783C75.5671 441.783 75.834 442.05 75.834 442.38C75.834 442.709 75.5671 442.976 75.2379 442.976Z" fill="#06152B"/>
<path d="M78.6665 442.976C78.3373 442.976 78.0704 442.709 78.0704 442.38C78.0704 442.05 78.3373 441.783 78.6665 441.783C78.9958 441.783 79.2627 442.05 79.2627 442.38C79.2627 442.709 78.9958 442.976 78.6665 442.976Z" fill="#06152B"/>
<path d="M82.1891 442.886C81.8598 442.886 81.5929 442.619 81.5929 442.29C81.5929 441.96 81.8598 441.694 82.1891 441.694C82.5183 441.694 82.7852 441.96 82.7852 442.29C82.7852 442.619 82.5183 442.886 82.1891 442.886Z" fill="#06152B"/>
<path d="M85.7652 442.886C85.436 442.886 85.1691 442.619 85.1691 442.29C85.1691 441.96 85.436 441.694 85.7652 441.694C86.0944 441.694 86.3613 441.96 86.3613 442.29C86.3613 442.619 86.0944 442.886 85.7652 442.886Z" fill="#06152B"/>
<path d="M87.106 445.419C86.7768 445.419 86.5099 445.152 86.5099 444.823C86.5099 444.494 86.7768 444.227 87.106 444.227C87.4353 444.227 87.7021 444.494 87.7021 444.823C87.7021 445.152 87.4353 445.419 87.106 445.419Z" fill="#06152B"/>
<path d="M83.8277 445.419C83.4985 445.419 83.2316 445.152 83.2316 444.823C83.2316 444.494 83.4985 444.227 83.8277 444.227C84.1569 444.227 84.4238 444.494 84.4238 444.823C84.4238 445.152 84.1569 445.419 83.8277 445.419Z" fill="#06152B"/>
<path d="M80.399 445.419C80.0698 445.419 79.8029 445.152 79.8029 444.823C79.8029 444.494 80.0698 444.227 80.399 444.227C80.7282 444.227 80.9951 444.494 80.9951 444.823C80.9951 445.152 80.7282 445.419 80.399 445.419Z" fill="#06152B"/>
<path d="M76.8785 445.509C76.5493 445.509 76.2824 445.242 76.2824 444.913C76.2824 444.584 76.5493 444.317 76.8785 444.317C77.2077 444.317 77.4746 444.584 77.4746 444.913C77.4746 445.242 77.2077 445.509 76.8785 445.509Z" fill="#06152B"/>
<path d="M73.451 445.509C73.1217 445.509 72.8549 445.242 72.8549 444.913C72.8549 444.583 73.1217 444.317 73.451 444.317C73.7802 444.317 74.0471 444.583 74.0471 444.913C74.0471 445.242 73.7802 445.509 73.451 445.509Z" fill="#06152B"/>
<path d="M70.1168 445.419C69.7876 445.419 69.5207 445.152 69.5207 444.823C69.5207 444.494 69.7876 444.227 70.1168 444.227C70.446 444.227 70.7129 444.494 70.7129 444.823C70.7129 445.152 70.446 445.419 70.1168 445.419Z" fill="#06152B"/>
<path d="M66.8394 445.419C66.5102 445.419 66.2433 445.152 66.2433 444.823C66.2433 444.494 66.5102 444.227 66.8394 444.227C67.1686 444.227 67.4355 444.494 67.4355 444.823C67.4355 445.152 67.1686 445.419 66.8394 445.419Z" fill="#06152B"/>
<path d="M68.3296 447.653C68.0004 447.653 67.7335 447.387 67.7335 447.057C67.7335 446.728 68.0004 446.461 68.3296 446.461C68.6589 446.461 68.9258 446.728 68.9258 447.057C68.9258 447.387 68.6589 447.653 68.3296 447.653Z" fill="#06152B"/>
<path d="M71.6627 447.744C71.3335 447.744 71.0666 447.477 71.0666 447.148C71.0666 446.819 71.3335 446.552 71.6627 446.552C71.9919 446.552 72.2588 446.819 72.2588 447.148C72.2588 447.477 71.9919 447.744 71.6627 447.744Z" fill="#06152B"/>
<path d="M75.2379 447.744C74.9087 447.744 74.6418 447.477 74.6418 447.148C74.6418 446.819 74.9087 446.552 75.2379 446.552C75.5671 446.552 75.834 446.819 75.834 447.148C75.834 447.477 75.5671 447.744 75.2379 447.744Z" fill="#06152B"/>
<path d="M78.6665 447.744C78.3373 447.744 78.0704 447.477 78.0704 447.148C78.0704 446.819 78.3373 446.552 78.6665 446.552C78.9958 446.552 79.2627 446.819 79.2627 447.148C79.2627 447.477 78.9958 447.744 78.6665 447.744Z" fill="#06152B"/>
<path d="M82.1891 447.653C81.8598 447.653 81.5929 447.387 81.5929 447.057C81.5929 446.728 81.8598 446.461 82.1891 446.461C82.5183 446.461 82.7852 446.728 82.7852 447.057C82.7852 447.387 82.5183 447.653 82.1891 447.653Z" fill="#06152B"/>
<path d="M85.7652 447.653C85.436 447.653 85.1691 447.387 85.1691 447.057C85.1691 446.728 85.436 446.461 85.7652 446.461C86.0944 446.461 86.3613 446.728 86.3613 447.057C86.3613 447.387 86.0944 447.653 85.7652 447.653Z" fill="#06152B"/>
<path d="M87.1062 450.337C86.7769 450.337 86.5101 450.07 86.5101 449.741C86.5101 449.412 86.7769 449.145 87.1062 449.145C87.4354 449.145 87.7023 449.412 87.7023 449.741C87.7023 450.07 87.4354 450.337 87.1062 450.337Z" fill="#06152B"/>
<path d="M83.8276 450.337C83.4984 450.337 83.2315 450.07 83.2315 449.741C83.2315 449.412 83.4984 449.145 83.8276 449.145C84.1568 449.145 84.4237 449.412 84.4237 449.741C84.4237 450.07 84.1568 450.337 83.8276 450.337Z" fill="#06152B"/>
<path d="M80.399 450.337C80.0698 450.337 79.8029 450.07 79.8029 449.741C79.8029 449.412 80.0698 449.145 80.399 449.145C80.7282 449.145 80.9951 449.412 80.9951 449.741C80.9951 450.07 80.7282 450.337 80.399 450.337Z" fill="#06152B"/>
<path d="M76.8785 450.428C76.5493 450.428 76.2824 450.161 76.2824 449.832C76.2824 449.502 76.5493 449.236 76.8785 449.236C77.2077 449.236 77.4746 449.502 77.4746 449.832C77.4746 450.161 77.2077 450.428 76.8785 450.428Z" fill="#06152B"/>
<path d="M73.451 450.428C73.1217 450.428 72.8549 450.161 72.8549 449.832C72.8549 449.502 73.1217 449.235 73.451 449.235C73.7802 449.235 74.0471 449.502 74.0471 449.832C74.0471 450.161 73.7802 450.428 73.451 450.428Z" fill="#06152B"/>
<path d="M70.1167 450.337C69.7874 450.337 69.5206 450.07 69.5206 449.741C69.5206 449.412 69.7874 449.145 70.1167 449.145C70.4459 449.145 70.7128 449.412 70.7128 449.741C70.7128 450.07 70.4459 450.337 70.1167 450.337Z" fill="#06152B"/>
<path d="M66.8394 450.337C66.5102 450.337 66.2433 450.07 66.2433 449.741C66.2433 449.412 66.5102 449.145 66.8394 449.145C67.1686 449.145 67.4355 449.412 67.4355 449.741C67.4355 450.07 67.1686 450.337 66.8394 450.337Z" fill="#06152B"/>
<path d="M68.3296 452.572C68.0004 452.572 67.7335 452.305 67.7335 451.976C67.7335 451.647 68.0004 451.38 68.3296 451.38C68.6589 451.38 68.9258 451.647 68.9258 451.976C68.9258 452.305 68.6589 452.572 68.3296 452.572Z" fill="#06152B"/>
<path d="M71.6624 452.663C71.3332 452.663 71.0663 452.396 71.0663 452.067C71.0663 451.738 71.3332 451.471 71.6624 451.471C71.9917 451.471 72.2585 451.738 72.2585 452.067C72.2585 452.396 71.9917 452.663 71.6624 452.663Z" fill="#06152B"/>
<path d="M75.2379 452.663C74.9087 452.663 74.6418 452.396 74.6418 452.067C74.6418 451.738 74.9087 451.471 75.2379 451.471C75.5671 451.471 75.834 451.738 75.834 452.067C75.834 452.396 75.5671 452.663 75.2379 452.663Z" fill="#06152B"/>
<path d="M78.6663 452.663C78.3371 452.663 78.0702 452.396 78.0702 452.067C78.0702 451.738 78.3371 451.471 78.6663 451.471C78.9955 451.471 79.2625 451.738 79.2625 452.067C79.2625 452.396 78.9955 452.663 78.6663 452.663Z" fill="#06152B"/>
<path d="M82.1891 452.572C81.8598 452.572 81.5929 452.306 81.5929 451.976C81.5929 451.647 81.8598 451.38 82.1891 451.38C82.5183 451.38 82.7852 451.647 82.7852 451.976C82.7852 452.306 82.5183 452.572 82.1891 452.572Z" fill="#06152B"/>
<path d="M85.7652 452.572C85.436 452.572 85.1691 452.305 85.1691 451.976C85.1691 451.647 85.436 451.38 85.7652 451.38C86.0944 451.38 86.3613 451.647 86.3613 451.976C86.3613 452.305 86.0944 452.572 85.7652 452.572Z" fill="#06152B"/>
<path d="M571.744 332.903V347.21H492.908V559.426H485.606V347.21L156.104 348.849V559.426H148.951V348.402L98.1325 348.849V331.711L571.744 332.903Z" fill="#59C65B"/>
<path d="M521.223 344.378L490.076 366.732L492.907 369.415L524.203 345.719L521.223 344.378Z" fill="#FF69B4"/>
<path d="M119.594 346.465L155.808 372.247L153.125 374.78L116.762 347.806L119.594 346.465Z" fill="#FF69B4"/>
<path d="M375.474 327.687H456.992V333.648H375.474V327.687Z" fill="#06152B"/>
</svg>
