<svg width="16" height="16" viewBox="0 0 16 16" fill="none" xmlns="http://www.w3.org/2000/svg">
<g filter="url(#filter0_f_71_2940)">
<path d="M11.306 9.30997C10.9505 9.2334 10.6693 9.39865 10.4203 9.54298C10.1653 9.69171 9.68036 10.0856 9.40241 9.98478C7.97937 9.3981 6.64097 8.15094 6.0616 6.72034C5.95948 6.43609 6.35102 5.94748 6.49845 5.68912C6.64152 5.43903 6.80317 5.15478 6.72945 4.79617C6.66283 4.47391 5.80112 3.37604 5.49642 3.07582C5.29547 2.8775 5.08963 2.76843 4.8783 2.75081C4.08378 2.71665 3.19642 3.77817 3.04079 4.03212C2.6509 4.57362 2.65308 5.29415 3.04734 6.16782C3.99749 8.51451 7.59112 12.056 9.94355 13.0432C10.3777 13.2465 10.7747 13.3484 11.1313 13.3484C11.4802 13.3484 11.7909 13.2509 12.0579 13.0575C12.2594 12.9413 13.363 12.0087 13.3341 11.1917C13.3166 10.9835 13.208 10.7753 13.0125 10.5737C12.7149 10.2657 11.6254 9.37717 11.306 9.30997Z" stroke="#8350E5" stroke-width="2.73108"/>
</g>
<g filter="url(#filter1_b_71_2940)">
<path d="M11.3028 9.30077C10.9474 9.22431 10.6663 9.38934 10.4174 9.53346C10.1625 9.68199 9.67774 10.0753 9.3999 9.97464C7.97739 9.38879 6.63952 8.14337 6.06036 6.71478C5.95829 6.43093 6.34966 5.943 6.49705 5.68501C6.64006 5.43526 6.80163 5.15142 6.72794 4.79331C6.66134 4.4715 5.79999 3.37517 5.4954 3.07537C5.29453 2.87734 5.08874 2.76841 4.8775 2.7508C4.08328 2.7167 3.19623 3.77672 3.04066 4.03032C2.65092 4.57106 2.65314 5.29058 3.04725 6.16303C3.99704 8.50643 7.58931 12.043 9.94086 13.0288C10.3748 13.2317 10.7717 13.3335 11.1281 13.3335C11.4769 13.3335 11.7875 13.2361 12.0544 13.0431C12.2559 12.927 13.359 11.9957 13.3301 11.1799C13.3126 10.972 13.204 10.764 13.0086 10.5627C12.7111 10.2552 11.6221 9.36788 11.3028 9.30077Z" fill="#5B1ED0" fill-opacity="0.01"/>
</g>
<defs>
<filter id="filter0_f_71_2940" x="0.701509" y="0.701753" width="14.6815" height="14.6949" filterUnits="userSpaceOnUse" color-interpolation-filters="sRGB">
<feFlood flood-opacity="0" result="BackgroundImageFix"/>
<feBlend mode="normal" in="SourceGraphic" in2="BackgroundImageFix" result="shape"/>
<feGaussianBlur stdDeviation="0.341384" result="effect1_foregroundBlur_71_2940"/>
</filter>
<filter id="filter1_b_71_2940" x="-13.25" y="-13.25" width="42.5806" height="42.5835" filterUnits="userSpaceOnUse" color-interpolation-filters="sRGB">
<feFlood flood-opacity="0" result="BackgroundImageFix"/>
<feGaussianBlur in="BackgroundImageFix" stdDeviation="8"/>
<feComposite in2="SourceAlpha" operator="in" result="effect1_backgroundBlur_71_2940"/>
<feBlend mode="normal" in="SourceGraphic" in2="effect1_backgroundBlur_71_2940" result="shape"/>
</filter>
</defs>
</svg>
