<svg width="16" height="16" viewBox="0 0 16 16" fill="none" xmlns="http://www.w3.org/2000/svg">
<path d="M9.33332 2.27778C9.33332 1.9788 9.16194 1.70629 8.89247 1.57677C8.623 1.44726 8.30314 1.48367 8.06967 1.67044L4.39383 4.61112H0.777777C0.348223 4.61112 0 4.95934 0 5.38889V11.6111C0 12.0407 0.348223 12.3889 0.777777 12.3889H4.39383L8.06967 15.3296C8.30314 15.5163 8.623 15.5527 8.89247 15.4232C9.16194 15.2937 9.33332 15.0212 9.33332 14.7222V2.27778ZM5.15253 5.99623L7.77777 3.89605V13.104L5.15253 11.0038C5.01463 10.8934 4.84327 10.8333 4.66666 10.8333H1.55555V6.16667H4.66666C4.84327 6.16667 5.01463 6.10656 5.15253 5.99623Z" fill="#FF69B4"/>
<path d="M14.0391 8.49995C14.0391 10.4329 13.2556 12.1829 11.9888 13.4497L10.8889 12.3498C11.8741 11.3645 12.4835 10.0034 12.4835 8.49995C12.4835 6.99651 11.8741 5.6354 10.8889 4.65015L11.9888 3.55021C13.2556 4.81696 14.0391 6.56696 14.0391 8.49995Z" fill="#FF69B4"/>
</svg>
